<svg width="21" height="20" viewBox="0 0 21 20" fill="#7e84a3" xmlns="http://www.w3.org/2000/svg">
<path d="M7 15.1429C7 14.9155 7.09219 14.6975 7.25628 14.5368C7.42038 14.376 7.64294 14.2857 7.875 14.2857H13.125C13.3571 14.2857 13.5796 14.376 13.7437 14.5368C13.9078 14.6975 14 14.9155 14 15.1429C14 15.3702 13.9078 15.5882 13.7437 15.7489C13.5796 15.9097 13.3571 16 13.125 16H7.875C7.64294 16 7.42038 15.9097 7.25628 15.7489C7.09219 15.5882 7 15.3702 7 15.1429ZM3.5 10C3.5 9.77267 3.59219 9.55465 3.75628 9.39391C3.92038 9.23316 4.14294 9.14286 4.375 9.14286H16.625C16.8571 9.14286 17.0796 9.23316 17.2437 9.39391C17.4078 9.55465 17.5 9.77267 17.5 10C17.5 10.2273 17.4078 10.4453 17.2437 10.6061C17.0796 10.7668 16.8571 10.8571 16.625 10.8571H4.375C4.14294 10.8571 3.92038 10.7668 3.75628 10.6061C3.59219 10.4453 3.5 10.2273 3.5 10ZM0 4.85714C0 4.62981 0.0921874 4.4118 0.256282 4.25105C0.420376 4.09031 0.642936 4 0.875 4H20.125C20.3571 4 20.5796 4.09031 20.7437 4.25105C20.9078 4.4118 21 4.62981 21 4.85714C21 5.08447 20.9078 5.30249 20.7437 5.46323C20.5796 5.62398 20.3571 5.71429 20.125 5.71429H0.875C0.642936 5.71429 0.420376 5.62398 0.256282 5.46323C0.0921874 5.30249 0 5.08447 0 4.85714Z" fill="#7E84A3"/>
</svg>
