<svg width="48" height="48" viewBox="0 0 48 48" fill="none" xmlns="http://www.w3.org/2000/svg">
<rect width="48" height="48" rx="24" fill="#336DFF"/>
<g clip-path="url(#clip0_175_4277)">
<path d="M23.8575 23.6341C25.181 23.6341 26.3271 23.1594 27.2635 22.2228C28.2 21.2863 28.6747 20.1406 28.6747 18.8169C28.6747 17.4936 28.2 16.3477 27.2634 15.411C26.3268 14.4747 25.1809 14 23.8575 14C22.5338 14 21.388 14.4747 20.4516 15.4111C19.5151 16.3476 19.0403 17.4935 19.0403 18.8169C19.0403 20.1406 19.5151 21.2865 20.4517 22.2229C21.3883 23.1592 22.5342 23.6341 23.8575 23.6341Z" fill="white"/>
<path d="M32.2863 29.3793C32.2593 28.9896 32.2047 28.5645 32.1242 28.1156C32.0431 27.6633 31.9385 27.2358 31.8134 26.845C31.6842 26.4411 31.5084 26.0423 31.2911 25.66C31.0656 25.2633 30.8007 24.9178 30.5034 24.6336C30.1926 24.3362 29.8121 24.0971 29.372 23.9227C28.9335 23.7492 28.4475 23.6613 27.9276 23.6613C27.7234 23.6613 27.526 23.7451 27.1447 23.9933C26.91 24.1464 26.6355 24.3234 26.3291 24.5191C26.0671 24.6861 25.7122 24.8425 25.2738 24.9841C24.8461 25.1225 24.4118 25.1927 23.9832 25.1927C23.5546 25.1927 23.1205 25.1225 22.6923 24.9841C22.2544 24.8426 21.8995 24.6862 21.6378 24.5193C21.3343 24.3253 21.0596 24.1483 20.8214 23.9932C20.4406 23.7449 20.243 23.6611 20.0388 23.6611C19.5188 23.6611 19.033 23.7492 18.5946 23.9228C18.1548 24.0969 17.7741 24.336 17.463 24.6337C17.1659 24.9181 16.9008 25.2635 16.6756 25.66C16.4585 26.0423 16.2827 26.441 16.1533 26.8452C16.0284 27.2359 15.9238 27.6633 15.8427 28.1156C15.7622 28.5639 15.7076 28.9892 15.6806 29.3798C15.6541 29.7625 15.6406 30.1597 15.6406 30.5608C15.6406 31.6048 15.9725 32.45 16.627 33.0733C17.2733 33.6884 18.1286 34.0004 19.1686 34.0004H28.7987C29.8388 34.0004 30.6937 33.6886 31.3402 33.0733C31.9948 32.4505 32.3267 31.6051 32.3267 30.5607C32.3266 30.1577 32.313 29.7602 32.2863 29.3793Z" fill="white"/>
</g>
<defs>
<clipPath id="clip0_175_4277">
<rect width="20" height="20" fill="white" transform="translate(14 14)"/>
</clipPath>
</defs>
</svg>
